<svg xmlns="http://www.w3.org/2000/svg" xmlns:xlink="http://www.w3.org/1999/xlink" width="256" height="256" class="icon" p-id="1370" t="1762437160589" version="1.1" viewBox="0 0 1024 1024"><path fill="#D8D8D8" fill-opacity="0" d="M0 0h1024v1024H0z" p-id="1371"/><path fill="#EA4335" d="M522.24 129.706667C351.573333 126.293333 204.8 238.933333 153.6 399.36c40.96-27.306667 95.573333-44.373333 150.186667-44.373333 20.48 0 40.96 3.413333 61.44 6.826666 37.546667-40.96 88.746667-64.853333 146.773333-68.266666 44.373333-3.413333 88.746667 10.24 126.293333 37.546666L733.866667 204.8c-61.44-47.786667-136.533333-75.093333-211.626667-75.093333z" p-id="1372"/><path fill="#34A853" d="M522.24 730.453333v163.84H303.786667c-47.786667 0-95.573333-13.653333-133.12-37.546666l98.986666-133.12c6.826667 0 13.653333 3.413333 17.066667 3.413333 6.826667 3.413333 13.653333 3.413333 20.48 3.413333h215.04z" p-id="1373"/><path fill="#4285F4" d="M720.213333 894.293333h-197.973333l-3.413333-163.84H716.8c143.36 3.413333 143.36-211.626667 6.826667-208.213333v-20.48c0-54.613333-20.48-109.226667-58.026667-146.773333v-3.413334c-3.413333-6.826667-10.24-6.826667-17.066667-13.653333-3.413333-3.413333-6.826667-6.826667-13.653333-6.826667L730.453333 204.8c10.24 6.826667 17.066667 13.653333 23.893334 20.48l20.48 20.48 6.826666 6.826667c40.96 40.96 68.266667 95.573333 85.333334 153.6 228.693333 146.773333 119.466667 491.52-146.773334 488.106666z" p-id="1374"/><path fill="#FBBC05" d="M491.52 433.493333c10.24 10.24 20.48 20.48 27.306667 30.72l-119.466667 119.466667c-20.48-44.373333-64.853333-68.266667-109.226667-61.44-47.786667 6.826667-81.92 44.373333-88.746666 88.746667-6.826667 44.373333 17.066667 88.746667 58.026666 109.226666l3.413334 3.413334-98.986667 133.12c-6.826667-3.413333-17.066667-10.24-23.893333-13.653334-68.266667-47.786667-112.64-129.706667-112.64-218.453333 0-95.573333 47.786667-177.493333 119.466666-225.28 40.96-27.306667 95.573333-44.373333 150.186667-44.373333 20.48 0 40.96 3.413333 61.44 6.826666 23.893333 6.826667 44.373333 13.653333 64.853333 23.893334 3.413333 3.413333 10.24 6.826667 13.653334 6.826666 3.413333 0 3.413333 3.413333 6.826666 3.413334 3.413333 3.413333 10.24 6.826667 13.653334 10.24 3.413333 3.413333 6.826667 6.826667 13.653333 10.24 10.24 6.826667 17.066667 13.653333 20.48 17.066666z" p-id="1375"/></svg>